<svg height="20" width="20" xmlns="http://www.w3.org/2000/svg" viewBox="0 0 48 48"><defs><style>.cls-1{fill:#ffbc5a;}.cls-2{fill:#ef9d3a;}.cls-3{fill:#505572;}.cls-4{fill:#231f20;}</style></defs><title>Dollar Coin</title><g id="Dollar_Coin" data-name="Dollar Coin"><path class="cls-1" d="M24,1A23,23,0,1,0,47,24,23.0256,23.0256,0,0,0,24,1Z"/><path class="cls-2" d="M24,5A19,19,0,1,0,43,24,19.0216,19.0216,0,0,0,24,5Z"/><path class="cls-1" d="M24,39A15,15,0,1,1,39,24,15.0164,15.0164,0,0,1,24,39Z"/><path class="cls-3" d="M27,32H21a3.0033,3.0033,0,0,1-3-3V28a1,1,0,0,1,2,0v1a1.001,1.001,0,0,0,1,1h6a1.001,1.001,0,0,0,1-1V26a1.001,1.001,0,0,0-1-1H21a3.0033,3.0033,0,0,1-3-3V19a3.0033,3.0033,0,0,1,3-3h6a3.0033,3.0033,0,0,1,3,3v1a1,1,0,0,1-2,0V19a1.001,1.001,0,0,0-1-1H21a1.001,1.001,0,0,0-1,1v3a1.001,1.001,0,0,0,1,1h6a3.0033,3.0033,0,0,1,3,3v3A3.0033,3.0033,0,0,1,27,32Z"/><path class="cls-3" d="M24,18a1,1,0,0,1-1-1V15a1,1,0,0,1,2,0v2A1,1,0,0,1,24,18Z"/><path class="cls-3" d="M24,34a1,1,0,0,1-1-1V31a1,1,0,0,1,2,0v2A1,1,0,0,1,24,34Z"/><path class="cls-4" d="M24,1A23,23,0,1,0,47,24,23.0259,23.0259,0,0,0,24,1Zm0,44A21,21,0,1,1,45,24,21.0239,21.0239,0,0,1,24,45Z"/><path class="cls-4" d="M24,5A19,19,0,1,0,43,24,19.0216,19.0216,0,0,0,24,5Zm0,36A17,17,0,1,1,41,24,17.019,17.019,0,0,1,24,41Z"/><path class="cls-4" d="M27,16H25V15a1,1,0,0,0-2,0v1H21a3.0033,3.0033,0,0,0-3,3v3a3.0033,3.0033,0,0,0,3,3h6a1.001,1.001,0,0,1,1,1v3a1.001,1.001,0,0,1-1,1H21a1.001,1.001,0,0,1-1-1V28a1,1,0,0,0-2,0v1a3.0033,3.0033,0,0,0,3,3h2v1a1,1,0,0,0,2,0V32h2a3.0033,3.0033,0,0,0,3-3V26a3.0033,3.0033,0,0,0-3-3H21a1.001,1.001,0,0,1-1-1V19a1.001,1.001,0,0,1,1-1h6a1.001,1.001,0,0,1,1,1v1a1,1,0,0,0,2,0V19A3.0033,3.0033,0,0,0,27,16Z"/></g></svg>